<?xml version="1.0" standalone="no"?>
<!DOCTYPE svg PUBLIC "-//W3C//DTD SVG 20010904//EN"
 "http://www.w3.org/TR/2001/REC-SVG-20010904/DTD/svg10.dtd">
<svg version="1.0" xmlns="http://www.w3.org/2000/svg"
 width="169.000000pt" height="169.000000pt" viewBox="0 0 169.000000 169.000000"
 preserveAspectRatio="xMidYMid meet">
<metadata>
Created by potrace 1.16, written by Peter Selinger 2001-2019
</metadata>
<g transform="translate(0.000000,169.000000) scale(0.100000,-0.100000)"
fill="#000000" stroke="none">
<path d="M550 1687 c9 -9 199 -137 204 -137 8 0 95 -60 100 -69 3 -5 -13 -5
-37 -1 -53 10 -196 -12 -211 -32 -6 -8 -16 -13 -23 -11 -16 6 -75 -26 -68 -37
6 -10 -29 -32 -38 -23 -9 8 -38 -17 -32 -27 3 -4 -12 -20 -33 -36 -43 -33
-148 -143 -178 -188 -93 -139 -125 -380 -72 -541 62 -188 255 -354 468 -400
161 -35 425 -18 545 35 159 70 196 91 243 139 28 28 57 62 64 75 7 13 24 43
36 66 31 56 52 139 52 203 -1 88 -34 238 -69 310 -11 24 -21 47 -21 51 0 10
-65 96 -102 137 -16 16 -28 34 -28 38 0 5 -12 17 -27 27 -31 20 -46 31 -74 57
-11 10 -48 35 -82 54 -34 20 -73 45 -87 55 -61 46 -115 76 -128 70 -10 -3 -13
-1 -8 6 3 6 1 14 -5 18 -8 4 -9 3 -5 -4 5 -8 0 -12 -13 -12 -14 0 -21 6 -21
19 0 13 -7 19 -24 19 -14 0 -32 7 -41 15 -8 9 -22 14 -30 11 -9 -4 -15 0 -15
9 0 8 -8 17 -17 21 -10 3 -33 15 -50 26 -18 11 -33 16 -33 11 0 -5 7 -12 16
-15 24 -9 10 -19 -15 -11 -12 3 -21 13 -21 21 0 8 -8 14 -18 14 -10 0 -26 6
-37 14 -20 13 -75 33 -65 23z m429 -277 c4 0 16 -8 27 -18 29 -27 107 -77 122
-78 28 -2 32 -5 32 -22 0 -13 12 -22 40 -31 22 -6 40 -16 40 -21 0 -6 27 -42
60 -81 71 -85 136 -200 157 -278 16 -59 20 -147 11 -218 -5 -41 -43 -117 -74
-148 -9 -8 -14 -22 -11 -29 4 -10 -1 -12 -15 -8 -17 4 -20 2 -15 -12 5 -13 -3
-21 -38 -36 -25 -11 -63 -24 -85 -30 -22 -6 -40 -17 -40 -24 0 -9 -17 -16 -45
-20 -25 -4 -45 -12 -45 -18 0 -5 -7 -7 -16 -4 -8 3 -27 0 -42 -8 -26 -13 -214
-27 -207 -16 2 3 1 11 -3 17 -5 7 -28 7 -76 0 -60 -8 -71 -8 -81 7 -7 9 -22
16 -34 16 -12 0 -21 6 -21 15 0 8 -8 15 -19 15 -18 0 -87 42 -106 65 -5 6 -25
22 -43 35 -30 20 -65 66 -98 127 -21 38 -37 170 -31 248 8 109 69 216 190 338
108 107 282 197 386 197 45 0 52 3 47 16 -5 12 -2 15 10 10 8 -3 19 -6 23 -6z"/>
</g>
</svg>
