<?xml version="1.0" standalone="no"?>
<!DOCTYPE svg PUBLIC "-//W3C//DTD SVG 20010904//EN"
 "http://www.w3.org/TR/2001/REC-SVG-20010904/DTD/svg10.dtd">
<svg version="1.0" xmlns="http://www.w3.org/2000/svg"
 width="169.000000pt" height="169.000000pt" viewBox="0 0 169.000000 169.000000"
 preserveAspectRatio="xMidYMid meet">
<metadata>
Created by potrace 1.16, written by Peter Selinger 2001-2019
</metadata>
<g transform="translate(0.000000,169.000000) scale(0.100000,-0.100000)"
fill="#000000" stroke="none">
<path d="M1405 1460 c-9 -16 -19 -30 -23 -30 -18 0 -305 -252 -417 -366 -27
-28 -62 -59 -78 -69 -24 -16 -30 -16 -45 -3 -9 8 -53 46 -98 85 -261 226 -408
324 -521 346 -31 6 -32 5 -28 -24 4 -34 1 -29 79 -127 70 -87 398 -394 416
-389 4 1 9 -2 10 -8 1 -5 6 -15 12 -22 13 -16 2 -32 -28 -43 -15 -6 -22 -15
-18 -24 4 -9 -15 -29 -53 -57 -81 -60 -114 -90 -124 -116 -4 -12 -25 -31 -46
-42 -21 -10 -51 -31 -68 -46 -16 -14 -41 -34 -55 -43 -14 -9 -44 -31 -66 -49
-26 -21 -48 -31 -58 -27 -9 3 -28 -2 -44 -12 -15 -10 -33 -17 -39 -16 -7 2
-13 -4 -13 -13 0 -8 -5 -15 -11 -15 -6 0 -1 -12 11 -27 12 -16 17 -29 11 -31
-6 -2 -11 -10 -11 -18 0 -8 6 -11 15 -8 19 8 65 -3 65 -15 0 -5 -10 -7 -23 -5
-12 2 -16 1 -9 -2 9 -4 10 -10 2 -19 -11 -13 0 -27 32 -38 12 -4 18 -1 18 9 0
10 6 14 14 11 8 -3 20 1 26 9 7 8 9 14 4 14 -5 0 9 9 31 21 22 11 62 43 88 70
26 27 56 49 66 49 11 0 31 13 44 30 14 16 31 30 37 30 6 0 10 7 8 16 -2 10 5
18 17 20 11 1 25 10 31 18 6 9 16 16 21 16 11 0 73 65 73 77 0 5 15 15 33 23
17 8 37 25 43 38 6 13 21 30 33 38 12 9 18 20 15 26 -4 7 -2 8 4 4 7 -4 12 -3
12 1 0 5 9 14 21 21 18 12 25 9 62 -27 23 -23 48 -41 55 -41 7 0 16 -8 19 -17
9 -23 58 -73 71 -73 7 0 25 -15 42 -32 16 -18 33 -36 37 -40 5 -4 29 -27 54
-50 26 -24 52 -53 59 -66 6 -13 17 -21 25 -19 16 7 35 -12 35 -33 0 -9 28 -37
63 -61 85 -62 84 -62 106 -42 38 35 50 43 64 43 10 0 12 9 9 32 -4 25 -2 30
11 25 11 -4 15 -1 12 13 -2 11 -7 26 -12 33 -13 22 -89 87 -102 87 -6 0 -11 4
-11 8 0 5 -45 49 -101 98 -55 49 -96 90 -90 92 17 6 13 22 -4 22 -9 0 -21 4
-28 10 -7 5 -56 46 -109 91 l-98 81 42 39 c23 21 46 39 50 39 4 0 8 6 8 14 0
8 17 28 38 44 20 16 55 46 77 67 22 20 65 56 95 78 30 23 95 81 144 129 l88
88 -13 45 c-7 25 -17 45 -22 45 -5 0 -20 9 -34 20 -34 26 -40 25 -58 -10z"/>
</g>
</svg>
