<?xml version="1.0" encoding="iso-8859-1"?>
<!-- Generator: Adobe Illustrator 19.0.0, SVG Export Plug-In . SVG Version: 6.00 Build 0)  -->
<svg version="1.1" id="Capa_1" xmlns="http://www.w3.org/2000/svg" xmlns:xlink="http://www.w3.org/1999/xlink" x="0px" y="0px"
	 viewBox="0 0 491.5 491.5" style="enable-background:new 0 0 491.5 491.5;" xml:space="preserve">
<g>
	<g>
		<path d="M9.3,324.997c6.1,9,14.8,16.2,25,20.2c5.1,2.1,10.5,3.3,15.9,3.8l4,0.2l2.9,0.1l5.8,0.1l23.4,0.5l36.7,0.7
			c16,25.4,38.1,47,64.2,62.3c28.9,17.1,62.7,26.2,96.3,25.9h0.3c10.4-0.1,18.7-8.5,18.6-18.9c-0.2-23.7-0.5-47.4-1-71.1
			c0.4-18.2,0.7-36.4,1.1-54.6c1.1-74,1.7-147.9,0.9-221.7v-0.4c-0.1-10.8-9-19.5-19.8-19.4c-46.2,0.4-92,18.5-125.1,49.6
			c-13.2,12.2-22.6,25.9-27.1,36.6c-2.4,5.2-3.3,9.9-3.4,13.2c0,3.3,1,5.4,3.3,6c8.7,2.3,23.9-14.6,48-33.9
			c25-20.4,56.1-32.2,87.8-34.9c-0.1,13.9-0.2,27.9-0.2,41.8c0.3,91.5,2.1,183,3.4,274.5c-23.7-3.5-46.3-11.9-66-24.6
			c-22.6-14.5-41.5-34.5-54.5-57.8c-0.8-1.5-1.9-2.9-3.1-4.1c1.6-8.6,3.1-17.2,2.9-25.7c-0.4-15.2-2.4-30.3-3.7-45.5
			c11.5-27.2,4.9-55,7.3-82.5c0.1-1.2-3.4-3.1-5.8-3.7c-4.9-1.2-9,0.4-12.1,2.7c-1.4,1-2.7,2.1-3.9,3.2c-3-2.3-9.8-4.4-18.2-6.2
			c-12.3-2.6-25.3-4.8-38.7-6.7c-3.4-0.4-6.8-0.9-10.2-1.4l-5.2-0.6l-2.6-0.3l-1.3-0.2l-0.7-0.1h-0.3H54h-0.1h-0.4l-2.6-0.2
			l-1.3-0.1l-1.7,0.1l-3.4,0.2l-3.2,0.5c-4.2,0.8-8.4,2.2-12.4,4.2c-7.9,4-14.9,10.5-19.6,18.6c-2.4,4-4.1,8.6-5.3,13.2
			c-1.2,4.6-1.4,10.1-1.5,13.3c-0.8,14.9-1.3,30.1-1.6,45.2l-0.9,47.5l0.1,2.9v0.7l0.1,1.1l0.3,2.3c0.4,3.2,1.1,5.5,1.8,8.2
			C3.9,315.497,6.3,320.497,9.3,324.997z M34.5,197.597c0.1-0.5,0-0.9,0.1-1.4c0.2-1.8,0.7-3.5,1.4-5.2c0.8-1.6,1.7-3.2,2.8-4.7
			c2.3-2.8,5.4-5,8.8-6.2c0.8-0.4,1.8-0.5,2.5-0.7c0.6,0,0.3-0.2,2.7-0.3l1.4-0.1h0.2h0.2h2.7h5.5c14.6,0.1,29.1,0.3,43.7,0.4
			c5.3,0.1,12.6-1.5,18-3.3c-2.9,4.7-4.5,9.7-5.1,14.7c-2.9,22.8-7.3,45.6-4,68.6c-0.4,2.8-0.8,5.7-1.1,8.5
			c-1.4,15.2-1.9,30.3,0.4,45.4c-8.4-0.1-16.7-0.2-25.1-0.2l-21.9-0.1H56.8h-2.7l-1.4-0.1c-0.9,0-1.8-0.3-2.7-0.3
			c-7-1.4-13-7.2-14.6-14.2c-0.4-1.1-0.2-1.1-0.4-1.6l-0.1-2.7v-0.7v-0.1v-0.9v-10.9l-0.1-21.9l-0.3-43.8v-10.9v-5.5
			C34.4,198.297,34.5,198.197,34.5,197.597z"/>
		<path d="M350.3,305.497c-4.6,5.8-10,11-15.8,14.8c-1.3,0.9-1.2,5.1-0.4,7.6c1.7,4.8,5.7,7,10,7.7c6.9,1.3,13.8,0.2,20.1-2.3
			c6.1-2.7,11.9-6.8,16.3-12.1c10.9-12.5,19.8-27.3,24.9-43.8c2.6-8.2,4-16.8,4.4-25.4l0.1-3.2v-1.6v-0.8v-1.3l-0.4-5.5
			c-0.5-4-1.1-9.2-2.2-13.2c-0.2-4.3-0.7-8.5-1.4-12.8c-2.6-13.4-7.5-26.4-14.9-38c-7.4-11.5-17.1-21.5-28.6-28.6
			c-6.5-4.2-14.4-3.7-19,4c-4.3,7.2-4.3,14.4-0.5,19.1c7,8.4,12.3,17.7,17.8,26.4c8.8,14.2,15.7,30,17.3,47.8
			c-5.5,15.3-9.8,29.2-16.2,42.4C358.6,293.297,354.9,299.697,350.3,305.497z"/>
		<path d="M416.5,348.297c-7.9,9.9-17.2,18.9-27.2,25.9c-2.1,1.4-3.2,6.6-2.7,9.3c0.9,5.4,6,6.8,11.7,6.4c9.3-0.4,18.7-3.7,27.5-8.6
			c8.5-5.2,16.7-12,23.2-20.3c8-9.8,15.2-20.4,21.4-31.7c6-11.4,11-23.4,14.6-35.9c3.7-12.5,5.6-25.5,6.3-38.5l0.1-4.9l0.1-2.4v-1.2
			v-1.7l-0.5-8.9c-0.2-2.9-0.7-6.7-1.2-9.9c-0.4-3.4-1-6.7-1.8-9.8c-0.5-6.4-1.5-12.8-2.7-19.2c-4.4-20.1-12-39.6-23-57.1
			c-11.2-17.3-25.3-32.8-42.1-44.3c-2.4-1.6-4.8-3-7.2-4c-2.4-0.9-4.8-1.5-7-1.6c-4.4-0.2-8,1.4-10.2,5.3c-2.1,3.6-2.5,7.8-1.6,11.8
			c1,4,3.2,8,6.7,11.6c12.5,13.1,22.5,28.1,31.8,43.1c14.8,24.2,25,51.7,26.9,81.2c-5.2,25.8-11.8,50.3-22.8,73.2
			C431,327.497,424.4,338.397,416.5,348.297z"/>
	</g>
</g>
<g>
</g>
<g>
</g>
<g>
</g>
<g>
</g>
<g>
</g>
<g>
</g>
<g>
</g>
<g>
</g>
<g>
</g>
<g>
</g>
<g>
</g>
<g>
</g>
<g>
</g>
<g>
</g>
<g>
</g>
</svg>
